<?xml version="1.0" encoding="iso-8859-1"?>
<!-- Generator: Adobe Illustrator 16.0.0, SVG Export Plug-In . SVG Version: 6.00 Build 0)  -->
<!DOCTYPE svg PUBLIC "-//W3C//DTD SVG 1.1//EN" "http://www.w3.org/Graphics/SVG/1.1/DTD/svg11.dtd">
<svg version="1.1" xmlns="http://www.w3.org/2000/svg" xmlns:xlink="http://www.w3.org/1999/xlink" x="0px" y="0px" width="512px"
	 height="512px" viewBox="0 0 512 512" style="enable-background:new 0 0 512 512;" xml:space="preserve">
<g id="F_-_211_x2C__Account_x2C__padlock_x2C__password_x2C__privacy_x2C__profile">
	<g>
		<path d="M259.137,283.572C298.721,263.939,326,223.099,326,176c0-66.168-53.832-120-120-120S86,109.832,86,176
			c0,47.099,27.279,87.939,66.863,107.572C73.877,306.616,16,379.672,16,466v20c0,5.522,4.477,10,10,10h360c5.522,0,10-4.478,10-10
			v-20C396,379.672,338.122,306.616,259.137,283.572z M106,176c0-55.14,44.86-100,100-100c55.14,0,100,44.86,100,100
			s-44.86,100-100,100C150.86,276,106,231.14,106,176z M376,476H36v-10c0-93.738,76.262-170,170-170s170,76.262,170,170V476z"/>
		<path d="M416,16c-44.112,0-80,35.888-80,80s35.888,80,80,80s80-35.888,80-80S460.112,16,416,16z M416,156
			c-33.084,0-60-26.916-60-60s26.916-60,60-60s60,26.916,60,60S449.084,156,416,156z"/>
		<path d="M445.698,88.398c0.532-2.149,0.2-2.187,0.302-17.398c0-13.785-11.215-25-25-25s-25,11.215-25,25v14.381
			c-8.419,6.086-13.913,15.981-13.913,27.141c0,18.46,15.019,33.478,33.479,33.478h6.956c18.46,0,33.479-15.019,33.479-33.479
			C456,103.051,452.041,94.493,445.698,88.398z M421,66c2.757,0,5,2.243,5,5v8.224c-2.776-0.288-4.236-0.14-10-0.181V71
			C416,68.243,418.243,66,421,66z M422.521,126h-6.956c-7.433,0-13.479-6.046-13.479-13.479c0-7.432,6.046-13.478,13.479-13.478
			h6.956c7.432,0,13.479,6.046,13.479,13.479C436,119.954,429.953,126,422.521,126z"/>
	</g>
</g>
<g id="Layer_1">
</g>
</svg>
